<svg width="125" height="25" viewBox="0 0 125 25" fill="none" xmlns="http://www.w3.org/2000/svg">
<path d="M9.9 22.2444C3.8 22.2444 0 17.0444 0 11.4444C0 5.54438 3.4 0.744385 9.9 0.744385C14.7 0.744385 18.4 3.54438 18.7 7.64438H14.5C14.3 5.74438 12.3 4.24438 10 4.24438C6.6 4.24438 4.4 6.84438 4.4 11.6444C4.4 14.9444 6.1 18.6444 10 18.6444C13.6 18.6444 14.9 16.8444 14.9 14.0444H10.4V10.7444H18.8V14.1444C18.7 18.8444 16.6 22.2444 9.9 22.2444Z" fill="black"/>
<path d="M21.1001 21.5444V1.24438H25.0001V21.5444H21.1001Z" fill="black"/>
<path d="M26.9001 12.9445C27.2001 9.64446 30.2001 6.64446 33.5001 6.34446C38.7001 5.84446 42.1001 9.04446 42.1001 14.1445C42.1001 18.8445 39.2001 21.9445 34.5001 21.9445C29.3001 21.9445 26.4001 18.1445 26.9001 12.9445ZM38.1001 14.1445C38.1001 11.1445 36.9001 9.64446 34.5001 9.64446C32.1001 9.64446 30.9001 11.1445 30.9001 14.1445C30.9001 17.1445 32.1001 18.6445 34.5001 18.6445C36.9001 18.6445 38.1001 17.1445 38.1001 14.1445Z" fill="black"/>
<path d="M43.8999 21.5444V1.24438H47.7999V8.64438C48.8999 7.04438 50.3999 6.34438 52.1999 6.34438C55.9999 6.34438 58.2999 9.54438 58.2999 14.0444C58.2999 19.0444 55.5999 22.0444 51.8999 22.0444C50.0999 22.0444 48.6999 21.3444 47.7999 19.8444V21.6444H43.8999V21.5444ZM54.2999 14.2444C54.2999 11.2444 53.1999 9.64438 50.8999 9.64438C48.6999 9.64438 47.5999 11.2444 47.5999 14.4444C47.5999 16.9444 49.0999 18.7444 50.8999 18.7444C52.8999 18.7444 54.2999 16.8444 54.2999 14.2444Z" fill="black"/>
<path d="M69.9 21.5445C69.8 21.1445 69.6999 20.6445 69.6999 20.2445C68.7999 21.2445 67.1999 21.9445 65.1999 21.9445C61.7999 21.9445 60.2 20.2445 60.2 17.8445C60.2 13.5445 63.1 13.0445 67 12.5445C69 12.2445 69.5 11.8445 69.5 10.8445C69.5 9.84448 68.5 9.34448 67 9.34448C65.2 9.34448 64.5 10.2445 64.3 11.5445H60.5999C60.6999 8.44448 62.3999 6.34448 67.0999 6.34448C71.7999 6.34448 73.4 8.44448 73.4 12.2445V21.6445H69.9V21.5445ZM69.6999 14.2445C69.2999 14.6445 68.5999 14.8445 67.1999 15.1445C64.9999 15.5445 64.1999 16.2445 64.1999 17.4445C64.1999 18.5445 64.8999 19.1445 66.0999 19.1445C68.0999 19.1445 69.5999 17.6445 69.6999 15.9445V14.2445Z" fill="black"/>
<path d="M85.7999 21.5444V12.5444C85.7999 10.2444 85.0999 9.64438 83.2999 9.64438C81.1999 9.64438 80.2999 10.7444 80.2999 13.0444V21.5444H76.3999V6.64438H79.9999V8.84439C80.8999 7.14439 82.3999 6.24438 84.7999 6.24438C87.5999 6.24438 89.6999 7.94438 89.6999 11.2444V21.5444H85.7999Z" fill="black"/>
<path d="M101.1 15.9444C101 17.5444 100.3 18.5444 98.8001 18.5444C97.2001 18.5444 96.5001 17.4444 96.5001 15.5444V9.44441H102.6V6.34441H96.5001V2.64441H92.6001V15.9444C92.6001 19.1444 94.3001 21.9444 98.7001 21.9444C102.9 21.9444 104.7 19.1444 104.7 15.9444H101.1Z" fill="black"/>
<path d="M109.5 0.144444C109.1 -0.155556 108.5 0.0444444 108.2 0.444444C108.1 0.644444 108 0.944444 108.1 1.14444L109.9 3.74444C113.3 8.84444 113.3 15.5444 109.9 20.6444L108.1 23.2444C108 23.7444 108.2 24.2444 108.7 24.3444C108.9 24.4444 109.2 24.3444 109.4 24.2444L124.1 13.0444C124.6 12.6444 124.7 11.9444 124.3 11.4444C124.2 11.3444 124.2 11.2444 124.1 11.2444L109.5 0.144444Z" fill="#BFD732"/>
</svg>
