<svg height="45" viewBox="0 0 111 45" width="111" xmlns="http://www.w3.org/2000/svg" xmlns:xlink="http://www.w3.org/1999/xlink"><mask id="a" fill="#fff"><path d="m.059.105h14.306v28.087h-14.306z" fill="#fff" fill-rule="evenodd"/></mask><mask id="b" fill="#fff"><path d="m.093.457h7.718v12.018h-7.718z" fill="#fff" fill-rule="evenodd"/></mask><g fill="none" fill-rule="evenodd"><path d="m1.15249714.58457647c2.01227143 5.21523529 4.31525715 15.78864703-1.08092857 27.40235293-.06501428.1508824.12844286.2832353.333.1508824 6.46654286-4.2405883 12.10481433-12.372353 13.96010003-19.0154118-6.43747146-3.30194118-10.31031431-6.71188235-12.65294289-8.89941176-.31132857-.29964706-.69507142.02805882-.55922857.36158823" fill="#ee2527" mask="url(#a)" transform="translate(80.343 .424)"/><path d="m4.96783143 37.4715c-1.84154286-.6326471-2.3791-.9354706-2.3791-1.7216471 0-.7173529.77805714-1.2552353 1.80401428-1.2552353.96622858 0 1.98531429.2837648 3.10218572.8650589.01744286.0148235.04175714.020647.06078571.020647.02484286 0 .04704286-.0058235.0666-.020647.03752857-.0169412.06395715-.0545294.07452857-.1027059l.29811429-1.9175294c.00687143-.0614118-.02378571-.1228236-.07981429-.1482353-1.0175-.4579412-2.2422-.7062353-3.45738571-.7062353-2.39125714 0-4.06365714 1.4479412-4.06365714 3.5179412 0 1.9021764 1.27702857 2.6973529 3.78827143 3.5777647 1.66764285.5701764 2.21682857.909 2.21682857 1.7915294 0 .8862353-.83725715 1.4611765-2.14547143 1.4611765-1.08515714 0-2.55934286-.4055295-3.74704286-1.0244118-.02484286-.0148235-.04281428-.0217059-.06607143-.0217059-.02378571 0-.04281428.0068824-.06131428.0174706-.04122857.0232941-.06765715.0614118-.07505715.1016471l-.30287142 1.8767647c-.00792858.0592941.0222.1222941.08298571.1482353 1.35631429.5728235 2.80618571.8899411 4.07475714.8899411 2.65448572 0 4.43577143-1.4881764 4.43577143-3.7000588 0-2.0032941-1.2728-2.8281176-3.62705714-3.6497647m15.63001567-4.8256941h-2.1026571c-.0745286 0-.1369.0624706-.1369.137647v7.1311765c0 1.9069412-.8954 2.9197059-2.5894714 2.9197059-1.6528429 0-2.5635715-1.0561765-2.5635715-2.9684118v-7.0824706c0-.0751764-.0623714-.137647-.1406-.137647h-2.0799285c-.074 0-.1374286.0624706-.1374286.137647v7.1751177c0 3.0912353 1.8336143 4.9362353 4.8988 4.9362353 3.1238571 0 4.995-1.8825883 4.995-5.0288824v-7.0824706c0-.0751764-.0629-.137647-.1432429-.137647m7.0224415 5.5127647h-1.3404572v-3.4771765h1.3875c1.0143286 0 2.2184143.3049412 2.2184143 1.737 0 1.1684118-.7357714 1.7401765-2.2654571 1.7401765m.2574143-5.5127647h-3.8173429c-.074 0-.1310857.0624706-.1310857.137647v11.7386471c0 .0725294.0570857.1408235.1310857.1408235h2.0825714c.0755857 0 .1369-.0682941.1369-.1408235v-4.3565294h1.3404572c2.9108428 0 4.5732-1.3807059 4.5732-3.7937647 0-2.2987059-1.6517857-3.726-4.3157857-3.726m14.2106428 9.9114353h-5.2222857v-3.0854118h4.3194857c.0391143 0 .0798143-.0169412.1057143-.0423529.0274857-.0344118.0375286-.0751765.0306571-.114353l-.2975857-1.8312353c-.0132143-.0661764-.0697714-.1154117-.1406-.1154117h-4.0176714v-2.6174118h5.0610714c.0729429 0 .1390143-.0598235.1390143-.1408235v-1.8264706c0-.0757059-.0660714-.1381765-.1390143-.1381765h-7.2831857c-.0729428 0-.1379571.0624706-.1379571.1381765v11.7370588c0 .0735882.0650143.1429412.1379571.1429412h7.4444c.0750572 0 .1342572-.069353.1342572-.1429412v-1.8280588c0-.0725294-.0592-.1355294-.1342572-.1355294m8.6421957-6.1389c0 1.163647-.7896857 1.8047647-2.2184143 1.8047647h-1.3869714v-3.4930588h1.3869714c1.0127429 0 2.2184143.2938235 2.2184143 1.6882941zm-.0100428 3.3787059c1.5291571-.5902942 2.368-1.7925883 2.368-3.3988236 0-2.3532353-1.7009429-3.7524706-4.5531143-3.7524706h-3.6297c-.0734714 0-.1326714.0624706-.1326714.1381765v11.7349412c0 .0751765.0592.144.1326714.144h2.0841571c.0755857 0 .1353143-.0688235.1353143-.144v-4.3946471h1.0640143l3.2332714 4.6175294c.0285429.0397059.0692429.0550589.1147.0550589 0 0 .0190286 0 .0259-.0031765l2.1534-.4875882c.0407-.0074118.0792857-.042353.0983143-.0836471.0163857-.0476471.0116286-.0915882-.0190286-.1318235zm14.96724-7.1383236h-2.0979c-.0644857 0-.1131143.0344118-.1310857.0921177l-3.2903572 8.7892941-3.2279857-8.7940588c-.0174429-.0571765-.0766429-.0974118-.1295-.0974118h-2.2844857c-.0428143.0100588-.0755857.0333529-.0925.0698824-.0232572.0365294-.0269572.0767647-.0121572.1154117l4.5700286 11.7296471c.0227286.0518823.0671286.0847059.1252714.0847059h1.9287572c.0565571 0 .1067714-.0328236.1263286-.0847059l4.6435-11.715353c.0190285-.0439411.0148-.0931764-.0121572-.1312941-.0232571-.038647-.0703-.0582353-.1157571-.0582353m4.5429128-.0129176h-2.1016c-.0734714 0-.1416571.0624706-.1416571.137647v11.7381177c0 .0730588.0681857.1413529.1416571.1413529h2.1016c.0782286 0 .1427143-.0682941.1427143-.1413529v-11.7381177c0-.0751764-.0644857-.137647-.1427143-.137647m11.5361772 9.9114353h-5.2222857v-3.0854118h4.3205428c.0417572 0 .0787572-.0169412.1083572-.0423529.0232571-.0344118.0354142-.0751765.0274857-.114353l-.3018143-1.8312353c-.0068714-.0661764-.0687143-.1154117-.1316143-.1154117h-4.0229571v-2.6174118h5.0573714c.0787571 0 .1427143-.0598235.1427143-.1408235v-1.8264706c0-.0757059-.0639572-.1381765-.1427143-.1381765h-7.2768429c-.0745285 0-.1353143.0624706-.1353143.1381765v11.7370588c0 .0735882.0607858.1429412.1353143.1429412h7.4417572c.074 0 .1406-.069353.1406-.1429412v-1.8280588c0-.0725294-.0666-.1355294-.1406-.1355294m19.0337514.0175764h-4.3062714v-9.7914705c0-.0762353-.0607857-.1376471-.1337286-.1376471h-2.0815143c-.0750571 0-.1363714.0614118-.1363714.1376471v11.7381176c0 .0730588.0613143.1408235.1363714.1408235h6.8206853c.034886 0 .075586-.0158823.102015-.0513529.026957-.0312353.034885-.0704118.0333-.1132941l-.302872-1.8058236c-.006871-.0640588-.068185-.117-.131614-.117" fill="#231f20"/><path d="m7.67390571 10.3683176h-5.23074285v-3.08541172h4.32688571c.03752857 0 .07928572-.01694117.10518572-.04235294.02272857-.03441176.03752857-.07517647.03277142-.11435294l-.30604285-1.83123529c-.0074-.06617647-.06237143-.11541177-.13637143-.11541177h-4.02242857v-2.61741176h5.06794285c.074 0 .13848572-.05982353.13848572-.14082353v-1.82647059c0-.07570588-.06448572-.13817647-.13848572-.13817647h-7.27895714c-.08087143 0-.13954286.06247059-.13954286.13817647v11.73705884c0 .0735882.05867143.1429412.13954286.1429412h7.44175714c.074 0 .1369-.069353.1369-.1429412v-1.8280588c0-.0725295-.0629-.1355295-.1369-.1355295" fill="#231f20" mask="url(#b)" transform="translate(103.071 32.189)"/><path d="m110.619904 14.7036706c-5.357071-.8449412-10.572485-2.6015294-13.969614-4.2204706-1.9689286 5.1628235-5.7656571 10.6978235-9.7384 14.5048235-.2172429.1842353-.0449286.5055883.3108.2572941 8.4872714-5.8801764 17.332914-8.7045882 23.405143-9.884647.332471-.0746471.335643-.564353-.007929-.657" fill="#821642"/><path d="m91.6551314 42.5748176h-4.2978143v-9.7914705c0-.0762353-.0586714-.1376471-.1384857-.1376471h-2.0804571c-.0734714 0-.1337286.0614118-.1337286.1376471v11.7381176c0 .0730588.0602572.1408235.1337286.1408235h6.8196286c.0375285 0 .0792857-.0158823.1062428-.0513529.0248429-.0312353.0354143-.0704118.0296-.1132941l-.3018143-1.8058236c-.0132143-.0640588-.0671285-.117-.1369-.117" fill="#231f20"/></g></svg>